<?xml version="1.0" encoding="UTF-8"?>
<svg id="katman_1" xmlns="http://www.w3.org/2000/svg" xmlns:xlink="http://www.w3.org/1999/xlink" version="1.1" viewBox="0 0 268.8 345.53">
  <!-- Generator: Adobe Illustrator 29.4.0, SVG Export Plug-In . SVG Version: 2.1.0 Build 152)  -->
  <defs>
    <style>
      .st0 {
        fill: url(#Adsız_degrade_6);
      }
    </style>
    <linearGradient id="Adsız_degrade_6" data-name="Adsız degrade 6" x1="134.4" y1="341.49" x2="134.4" y2="4.04" gradientUnits="userSpaceOnUse">
      <stop offset="0" stop-color="#efff00"/>
      <stop offset="1" stop-color="#d41d00"/>
    </linearGradient>
  </defs>
  <path class="st0" d="M240.72,157.77c-4.31-5.62-9.56-10.5-14.44-15.37-12.56-11.25-26.81-19.31-38.81-31.12-27.93-27.37-34.12-72.55-16.31-107.24-17.81,4.31-33.37,14.06-46.68,24.75-48.56,39-67.68,107.8-44.81,166.86.75,1.87,1.5,3.75,1.5,6.19,0,4.12-2.81,7.87-6.56,9.37-4.31,1.87-8.81.75-12.37-2.25-1.12-.94-1.87-1.87-2.62-3.19-21.19-26.81-24.56-65.24-10.31-95.99C17.99,135.27.93,178.39,3.37,219.08c1.12,9.37,2.25,18.75,5.44,28.12,2.62,11.25,7.69,22.5,13.31,32.43,20.25,32.43,55.31,55.68,92.99,60.37,40.12,5.06,83.05-2.25,113.8-30,34.31-31.12,46.31-80.99,28.68-123.74l-2.44-4.87c-3.94-8.62-14.44-23.62-14.44-23.62M181.48,275.88c-5.25,4.5-13.87,9.37-20.62,11.25-21,7.5-42-3-54.37-15.37,22.31-5.25,35.62-21.75,39.56-38.43,3.19-15-2.81-27.37-5.25-41.81-2.25-13.87-1.87-25.68,3.19-38.62,3.56,7.12,7.31,14.25,11.81,19.87,14.44,18.75,37.12,27,42,52.49.75,2.62,1.12,5.25,1.12,8.06.56,15.37-6.19,32.25-17.44,42.56h0Z"/>
</svg>